<svg width="39" height="39" viewBox="0 0 39 39" fill="none" xmlns="http://www.w3.org/2000/svg">
<path d="M32.7187 6.20626C30.9995 4.47021 28.9519 3.0937 26.6953 2.15694C24.4387 1.22018 22.0183 0.741915 19.575 0.75001C9.3375 0.75001 0.99375 9.09376 0.99375 19.3313C0.99375 22.6125 1.85625 25.8 3.46875 28.6125L0.84375 38.25L10.6875 35.6625C13.4062 37.1438 16.4625 37.9313 19.575 37.9313C29.8125 37.9313 38.1562 29.5875 38.1562 19.35C38.1562 14.3813 36.225 9.71251 32.7187 6.20626ZM19.575 34.7813C16.8 34.7813 14.0812 34.0313 11.7 32.625L11.1375 32.2875L5.2875 33.825L6.84375 28.125L6.46875 27.5438C4.92665 25.082 4.10798 22.2362 4.10625 19.3313C4.10625 10.8188 11.0437 3.88126 19.5562 3.88126C23.6812 3.88126 27.5625 5.49376 30.4687 8.41876C31.908 9.85101 33.0486 11.5548 33.8243 13.4313C34.6 15.3077 34.9954 17.3195 34.9875 19.35C35.025 27.8625 28.0875 34.7813 19.575 34.7813ZM28.05 23.2313C27.5812 23.0063 25.2937 21.8813 24.8812 21.7125C24.45 21.5625 24.15 21.4875 23.8312 21.9375C23.5125 22.4063 22.6312 23.4563 22.3687 23.7563C22.1062 24.075 21.825 24.1125 21.3562 23.8688C20.8875 23.6438 19.3875 23.1375 17.625 21.5625C16.2375 20.325 15.3187 18.8063 15.0375 18.3375C14.775 17.8688 15 17.625 15.2437 17.3813C15.45 17.175 15.7125 16.8375 15.9375 16.575C16.1625 16.3125 16.2562 16.1063 16.4062 15.8063C16.5562 15.4875 16.4812 15.225 16.3687 15C16.2562 14.775 15.3187 12.4875 14.9437 11.55C14.5687 10.65 14.175 10.7625 13.8937 10.7438H12.9937C12.675 10.7438 12.1875 10.8563 11.7562 11.325C11.3437 11.7938 10.1437 12.9188 10.1437 15.2063C10.1437 17.4938 11.8125 19.7063 12.0375 20.0063C12.2625 20.325 15.3187 25.0125 19.9687 27.0188C21.075 27.5063 21.9375 27.7875 22.6125 27.9938C23.7187 28.35 24.7312 28.2938 25.5375 28.1813C26.4375 28.05 28.2937 27.0563 28.6687 25.9688C29.0625 24.8813 29.0625 23.9625 28.9312 23.7563C28.8 23.55 28.5187 23.4563 28.05 23.2313Z" fill="white"/>
</svg>
